<svg width="23" height="23" viewBox="0 0 23 23" fill="none" xmlns="http://www.w3.org/2000/svg">
<path d="M11.04 0C4.94849 0 3.05176e-05 4.94846 3.05176e-05 11.04C3.05176e-05 17.1315 4.94849 22.08 11.04 22.08C17.1316 22.08 22.08 17.1315 22.08 11.04C22.08 4.94846 17.1316 0 11.04 0ZM11.04 0.96C16.6127 0.96 21.12 5.46728 21.12 11.04C21.12 16.6127 16.6127 21.12 11.04 21.12C10.0207 21.12 9.03733 20.9674 8.11034 20.6869C8.52326 19.9965 9.05636 19.0097 9.26816 18.195C9.39398 17.7119 9.91128 15.7416 9.91128 15.7416C10.2475 16.3834 11.2298 16.9266 12.2757 16.9266C15.3879 16.9266 17.6316 14.0643 17.6316 10.5075C17.6316 7.09753 14.849 4.54688 11.2688 4.54688C6.81451 4.54688 4.45034 7.5364 4.45034 10.7916C4.45034 12.3054 5.25551 14.1899 6.54472 14.79C6.74 14.8809 6.84487 14.8415 6.88972 14.6522C6.92425 14.5085 7.0984 13.8081 7.17659 13.4822C7.2016 13.3782 7.18949 13.2883 7.10534 13.1859C6.67865 12.6684 6.33659 11.7177 6.33659 10.8309C6.33659 8.55458 8.05993 6.35156 10.996 6.35156C13.5311 6.35156 15.3066 8.07978 15.3066 10.5506C15.3066 13.3422 13.897 15.2766 12.0628 15.2766C11.0499 15.2766 10.2914 14.4386 10.5347 13.4109C10.8265 12.1844 11.3897 10.8609 11.3897 9.975C11.3897 9.18274 10.9646 8.52187 10.0838 8.52187C9.04821 8.52187 8.21628 9.59254 8.21628 11.0278C8.21628 11.9411 8.52566 12.5597 8.52566 12.5597C8.52566 12.5597 7.50269 16.8847 7.31534 17.6897C7.12759 18.4941 7.17788 19.5775 7.25534 20.3841C3.56218 18.8892 0.96003 15.2733 0.96003 11.04C0.96003 5.46728 5.46731 0.96 11.04 0.96Z" fill="#FEFAFA"/>
</svg>
