<svg width="20" height="20" viewBox="0 0 20 20" fill="none" xmlns="http://www.w3.org/2000/svg">
<path d="M11.7608 12.6746C12.3982 12.4685 13.2144 14.0348 14.0832 14.6343C14.7353 15.0884 15.2348 14.9904 15.2348 14.9904L17.5505 14.957C17.5505 14.957 18.7608 14.8823 18.1887 13.9208C18.1413 13.8408 17.8533 13.208 16.465 11.9058C15.0134 10.5435 15.2101 10.7642 16.9578 8.4091C18.0226 6.97349 18.4487 6.09666 18.3153 5.72325C18.1873 5.36385 17.4052 5.4572 17.4052 5.4572L14.796 5.47521C14.542 5.47587 14.3266 5.55455 14.2286 5.8186C14.2266 5.82127 13.8145 6.92948 13.265 7.87166C12.1042 9.86471 11.6407 9.97073 11.4487 9.84604C11.0079 9.55732 11.1193 8.68782 11.1193 8.0697C11.1193 6.138 11.4074 5.33251 10.5552 5.12447C10.2705 5.05512 10.0624 5.00978 9.3363 5.00311C8.40812 4.98911 7.61997 5.00311 7.17322 5.22249C6.8765 5.37119 6.64912 5.69725 6.78714 5.71592C6.96051 5.73926 7.34925 5.8226 7.55729 6.10666C7.82468 6.47473 7.81667 7.29955 7.81667 7.29955C7.81667 7.29955 7.96937 9.57399 7.45661 9.85604C7.10454 10.0494 6.62311 9.65467 5.58758 7.84499C5.05882 6.91948 4.65941 5.89662 4.65941 5.89662C4.65941 5.89662 4.58206 5.70658 4.44203 5.60256C4.27533 5.47921 4.04195 5.43986 4.04195 5.43986L1.56548 5.45587C1.56548 5.45587 1.19341 5.46654 1.05672 5.63057C0.935362 5.77593 1.04672 6.07599 1.04672 6.07599C1.04672 6.07599 2.98642 10.6642 5.18284 12.9753C7.19656 15.097 9.48499 14.9563 9.48499 14.9563H10.5219C10.5219 14.9563 10.8346 14.9203 10.9946 14.7483C11.144 14.5883 11.1373 14.2876 11.1373 14.2876C11.1373 14.2876 11.1166 12.8813 11.7608 12.6746Z" fill="white"/>
</svg>
