<svg width="24" height="24" viewBox="0 0 24 24" fill="none" xmlns="http://www.w3.org/2000/svg">
<path d="M11.8063 0.260313C11.7524 0.261184 11.6991 0.270424 11.648 0.287701C10.7673 0.300711 9.9015 0.395174 9.08168 0.600128C8.7261 0.686705 8.37467 0.796104 8.02571 0.923713C7.94211 0.933134 7.86204 0.962723 7.79241 1.00993C7.34631 1.17306 6.91336 1.36201 6.50212 1.58001C5.82707 1.93061 5.19481 2.36596 4.60321 2.85001C4.52402 2.88217 4.45398 2.93339 4.39932 2.99912C4.34406 3.04533 4.28879 3.09145 4.235 3.14113C3.55014 3.74989 2.93568 4.43987 2.40811 5.20132C2.25286 5.42453 2.11062 5.65704 1.97396 5.89109C1.91923 5.95267 1.87995 6.02638 1.85933 6.10614C1.25959 7.16723 0.82684 8.3367 0.598464 9.57225C0.563517 9.64533 0.546148 9.72558 0.547746 9.80657C0.517522 9.97526 0.488549 10.1453 0.469639 10.3249C0.415823 10.7743 0.388489 11.2293 0.388489 11.6933C0.388489 12.1573 0.415823 12.6123 0.469639 13.0617C0.488549 13.2413 0.517522 13.4113 0.547746 13.58C0.546306 13.6607 0.563671 13.7406 0.598464 13.8133C0.826625 15.0483 1.25809 16.2177 1.8573 17.2784C1.87821 17.3591 1.91822 17.4336 1.97396 17.4955C2.11077 17.7298 2.25268 17.9629 2.40811 18.1863C2.93625 18.9484 3.5508 19.6327 4.23297 20.2445C4.28659 20.294 4.34223 20.3394 4.3973 20.3855L4.39831 20.3865C4.4533 20.4532 4.52408 20.5052 4.60423 20.5376C4.60423 20.5376 4.60524 20.5376 4.60524 20.5376C5.19635 21.0211 5.82774 21.4563 6.50212 21.8066C6.91336 22.0246 7.34631 22.2135 7.79241 22.3767C7.86175 22.4237 7.94145 22.4533 8.0247 22.4629C8.37395 22.5907 8.72579 22.6998 9.08168 22.7865C9.9015 22.9914 10.7673 23.0859 11.648 23.0989C11.7559 23.1354 11.8729 23.1354 11.9808 23.0989C12.8615 23.0859 13.7273 22.9914 14.5471 22.7865C14.9027 22.6999 15.2541 22.5905 15.6031 22.4629C15.6867 22.4535 15.7668 22.4239 15.8364 22.3767C16.2825 22.2135 16.7154 22.0246 17.1267 21.8066C17.8017 21.456 18.434 21.0206 19.0256 20.5366C19.1048 20.5044 19.1748 20.4532 19.2295 20.3875C19.2853 20.3408 19.3415 20.2947 19.3958 20.2445C20.078 19.6327 20.6926 18.9484 21.2207 18.1863V18.1853C21.3759 17.9621 21.5182 17.7296 21.6548 17.4955C21.7096 17.4339 21.7489 17.3602 21.7695 17.2805C22.3692 16.2194 22.802 15.0499 23.0303 13.8144C23.0653 13.7413 23.0827 13.661 23.0811 13.58C23.1112 13.4113 23.1403 13.2413 23.1592 13.0617C23.213 12.6123 23.2403 12.1573 23.2403 11.6933C23.2403 11.2293 23.213 10.7743 23.1592 10.3249C23.1403 10.1453 23.1113 9.97526 23.0811 9.80657C23.0825 9.72592 23.0651 9.64604 23.0303 9.57326C22.8022 8.33826 22.3707 7.16892 21.7715 6.10817C21.7506 6.0275 21.7106 5.95305 21.6548 5.89109C21.5182 5.65704 21.3759 5.42453 21.2207 5.20132V5.20031C20.6932 4.43913 20.0785 3.74973 19.3938 3.14113C19.3407 3.0921 19.286 3.04678 19.2315 3.00115C19.2312 3.00081 19.2308 3.00047 19.2305 3.00013C19.1755 2.9334 19.1047 2.88145 19.0246 2.84899C19.0242 2.84899 19.0239 2.84899 19.0236 2.84899C18.4325 2.36554 17.8011 1.93027 17.1267 1.58001C16.7154 1.36201 16.2825 1.17306 15.8364 1.00993C15.7671 0.962876 15.6874 0.933293 15.6041 0.923713C15.2549 0.795945 14.903 0.686781 14.5471 0.600128C13.7273 0.395174 12.8615 0.300711 11.9808 0.287701C11.9246 0.268679 11.8656 0.259416 11.8063 0.260313V0.260313ZM7.91413 0.956173C7.91055 0.957429 7.90759 0.959982 7.90399 0.961244C7.90238 0.961868 7.90058 0.961635 7.89892 0.962259L7.91413 0.956173ZM15.7147 0.956173L15.7299 0.962259C15.7283 0.961636 15.7265 0.961867 15.7248 0.961244C15.7212 0.959982 15.7183 0.957435 15.7147 0.956173ZM11.295 1.36902V3.44544C10.7969 3.47695 10.2974 3.50746 9.82724 3.62194C9.8269 3.62194 9.82657 3.62194 9.82623 3.62194C9.70614 3.6514 9.58902 3.69588 9.47018 3.73048L8.76012 1.78187C8.94929 1.72368 9.13121 1.65682 9.3302 1.60841C9.33121 1.60808 9.33223 1.60774 9.33324 1.6074C9.95706 1.45144 10.6256 1.40309 11.295 1.36902ZM12.3338 1.36902C13.0032 1.40309 13.6717 1.45144 14.2956 1.6074C14.2966 1.60774 14.2976 1.60808 14.2986 1.60841C14.4976 1.65682 14.6795 1.72368 14.8687 1.78187L14.1586 3.73048C14.0398 3.69588 13.9227 3.6514 13.8026 3.62194C13.8022 3.62194 13.8019 3.62194 13.8016 3.62194C13.3314 3.50747 12.8319 3.47695 12.3338 3.44544V1.36902ZM7.78734 2.144L8.49638 4.09464C8.3145 4.17408 8.1292 4.24157 7.95268 4.33708L7.95166 4.33809C7.67303 4.48479 7.42445 4.68938 7.16147 4.86759C7.05536 4.88157 6.95617 4.92798 6.87744 5.00047L5.57093 3.44443C6.02422 3.10129 6.4821 2.75992 6.98496 2.49903C6.98632 2.49836 6.98767 2.49769 6.98902 2.497C7.24872 2.35934 7.51937 2.25674 7.78734 2.144ZM15.8415 2.144C16.1094 2.25674 16.3801 2.35934 16.6398 2.497C16.6411 2.49769 16.6425 2.49836 16.6438 2.49903C17.1467 2.75992 17.6046 3.10129 18.0579 3.44443L16.7514 5.00047C16.6725 4.92835 16.5733 4.8823 16.4673 4.86861C16.2042 4.69027 15.9559 4.48488 15.6771 4.33809C15.5002 4.24233 15.3147 4.17426 15.1324 4.09464L15.8415 2.144ZM4.7645 4.0987L6.10449 5.69532C5.6931 6.08758 5.2984 6.50103 4.97245 6.97343C4.94375 7.01465 4.92183 7.0577 4.89434 7.09921L3.09383 6.05948C3.15039 5.9716 3.20216 5.87858 3.2612 5.79371C3.2612 5.79338 3.2612 5.79304 3.2612 5.7927C3.69481 5.16687 4.21225 4.61256 4.7645 4.0987ZM18.8643 4.0987C19.4165 4.61256 19.934 5.16687 20.3676 5.7927C20.3676 5.79304 20.3676 5.79338 20.3676 5.79371C20.4266 5.87858 20.4784 5.9716 20.535 6.05948L18.7345 7.09921C18.707 7.0577 18.6851 7.01465 18.6564 6.97343L18.6543 6.9714C18.3288 6.49989 17.935 6.08692 17.5243 5.69532L18.8643 4.0987ZM11.295 4.48416V6.52609C10.5371 6.60189 9.82862 6.84535 9.20137 7.21282L7.99427 5.55229C8.14577 5.45863 8.27764 5.33973 8.43653 5.2561C8.43823 5.25509 8.43992 5.25408 8.44161 5.25305C8.70524 5.11007 8.98807 4.98945 9.27644 4.88179C9.31588 4.87176 9.35402 4.85712 9.39005 4.83817C9.60849 4.75801 9.83305 4.68926 10.0737 4.63023L10.0727 4.63124C10.4643 4.5359 10.8813 4.514 11.295 4.48416ZM12.3338 4.48416C12.7475 4.514 13.1645 4.53589 13.5561 4.63124L13.5551 4.63023C13.7961 4.68934 14.0211 4.75786 14.2398 4.83817C14.2764 4.85761 14.3152 4.8726 14.3554 4.88281C14.6427 4.9902 14.9245 5.11057 15.1872 5.25305C15.1889 5.25408 15.1906 5.25509 15.1923 5.2561C15.3512 5.33973 15.483 5.45863 15.6345 5.55229L14.4274 7.21282C13.8002 6.84535 13.0917 6.60189 12.3338 6.52609V4.48416ZM7.13611 6.13759L8.36249 7.8255C7.8123 8.31716 7.36505 8.9212 7.06307 9.60471L5.09011 8.9616C5.20717 8.66568 5.33585 8.37791 5.49282 8.10851C5.51689 8.07549 5.53698 8.03973 5.55267 8.002C5.6406 7.85084 5.72987 7.70453 5.82655 7.56582C5.82689 7.56515 5.82723 7.56447 5.82756 7.56379C6.16166 7.07959 6.55516 6.63753 6.99207 6.24917C6.99274 6.24849 6.99342 6.24782 6.99409 6.24714C7.02615 6.21828 7.04446 6.20315 7.06713 6.18425C7.06781 6.18391 7.06848 6.18357 7.06916 6.18323C7.09263 6.16978 7.11501 6.15452 7.13611 6.13759V6.13759ZM16.4927 6.13759C16.5132 6.15374 16.5349 6.16832 16.5576 6.1812C16.581 6.20054 16.601 6.21677 16.6347 6.24714C16.6354 6.24782 16.6361 6.24849 16.6367 6.24917C17.0736 6.63753 17.4671 7.07959 17.8012 7.56379C17.8016 7.56447 17.8019 7.56515 17.8023 7.56582C17.8991 7.70476 17.9881 7.85158 18.0761 8.00302C18.092 8.0415 18.1124 8.07794 18.137 8.11155C18.1373 8.11189 18.1377 8.11223 18.138 8.11257C18.293 8.37907 18.4219 8.66567 18.5417 8.96058L16.5657 9.60471C16.2637 8.9212 15.8165 8.31716 15.2663 7.8255L16.4927 6.13759ZM2.59577 6.97038L4.39628 8.0091C4.27621 8.25136 4.14305 8.48816 4.04937 8.74148V8.74249C4.02217 8.81211 4.01286 8.89009 3.98749 8.96058C3.9454 9.01436 3.91433 9.0759 3.89606 9.14169C3.87778 9.20749 3.87266 9.27624 3.88098 9.34402C3.84065 9.47635 3.8017 9.60921 3.76838 9.74469L1.71935 9.38358C1.91077 8.5348 2.20593 7.72662 2.59577 6.97038ZM21.033 6.97038C21.4229 7.72662 21.718 8.5348 21.9095 9.38358L19.8624 9.74469C19.8291 9.60642 19.7896 9.47036 19.7488 9.33489C19.7625 9.20439 19.7262 9.07357 19.6474 8.9687C19.6212 8.89494 19.613 8.81442 19.5845 8.74148C19.4881 8.48914 19.3553 8.25077 19.2345 8.00809L21.033 6.97038ZM11.7535 7.54148C11.7953 7.54657 11.8375 7.54657 11.8793 7.54148C12.7238 7.55444 13.5064 7.81533 14.1556 8.25762C14.207 8.31894 14.2719 8.36755 14.3453 8.39964C14.9722 8.8814 15.4547 9.53738 15.7248 10.2975C15.7316 10.38 15.7581 10.4596 15.8019 10.5298C15.909 10.8992 15.9693 11.2886 15.9693 11.6933C15.9693 12.0973 15.9086 12.4859 15.8019 12.8548C15.7578 12.9255 15.7313 13.0059 15.7248 13.0891C15.455 13.8483 14.9731 14.5033 14.3473 14.9849C14.273 15.0173 14.2074 15.0667 14.1556 15.129C13.5053 15.572 12.7214 15.8329 11.8753 15.8451C11.8335 15.84 11.7913 15.84 11.7495 15.8451C9.96822 15.8178 8.46906 14.6791 7.90399 13.0891C7.89716 13.0066 7.87073 12.927 7.8269 12.8568C7.71984 12.4874 7.65952 12.098 7.65952 11.6933C7.65952 11.2893 7.72019 10.9007 7.8269 10.5318C7.87104 10.4611 7.89748 10.3807 7.90399 10.2975C8.46949 8.7063 9.97049 7.56714 11.7535 7.54148ZM18.8481 9.95264C18.8833 10.0954 18.9396 10.2297 18.9657 10.3766C18.9685 10.4169 18.976 10.4568 18.9881 10.4953C19.0042 10.6043 19.0205 10.7104 19.0317 10.8108C19.0317 10.8122 19.0317 10.8135 19.0317 10.8149C19.0658 11.1027 19.0854 11.3992 19.0854 11.6933C19.0854 11.9874 19.0658 12.2839 19.0317 12.5717C19.0317 12.5731 19.0317 12.5745 19.0317 12.5758C19.0204 12.6768 19.0043 12.7836 18.9881 12.8933C18.9763 12.9309 18.9688 12.9697 18.9657 13.0089C18.9396 13.1562 18.8834 13.2909 18.8481 13.434L16.8873 12.7959C16.9647 12.4401 17.008 12.0719 17.008 11.6933C17.008 11.3147 16.9647 10.9465 16.8873 10.5907L18.8481 9.95264ZM4.78276 9.95365L6.74152 10.5907C6.6641 10.9465 6.6208 11.3147 6.6208 11.6933C6.6208 12.0719 6.6641 12.4401 6.74152 12.7959L4.78276 13.4329C4.7469 13.2905 4.68911 13.1549 4.66306 13.0089C4.66019 12.969 4.6527 12.9295 4.64075 12.8913C4.62461 12.7823 4.60828 12.6762 4.59713 12.5758C4.59713 12.5745 4.59713 12.5731 4.59713 12.5717C4.56298 12.2839 4.54337 11.9874 4.54337 11.6933C4.54337 11.3992 4.56298 11.1027 4.59713 10.8149C4.59713 10.8135 4.59713 10.8122 4.59713 10.8108C4.60836 10.7098 4.62449 10.603 4.64075 10.4933C4.65247 10.4561 4.65996 10.4176 4.66306 10.3787C4.68914 10.2324 4.74682 10.0965 4.78276 9.95365ZM1.50734 10.401L3.56145 10.7631C3.52781 11.0666 3.50465 11.3779 3.50465 11.6933C3.50465 12.0087 3.52781 12.32 3.56145 12.6235L1.50734 12.9856C1.50614 12.9749 1.5034 12.9639 1.50227 12.9532C1.50195 12.9504 1.50162 12.9477 1.50126 12.945C1.45184 12.5349 1.42721 12.1198 1.42721 11.6933C1.42721 11.2668 1.45184 10.8517 1.50126 10.4416C1.50162 10.4389 1.50195 10.4362 1.50227 10.4335C1.5034 10.4227 1.50614 10.4117 1.50734 10.401ZM22.1215 10.401C22.1227 10.4117 22.1254 10.4227 22.1265 10.4335C22.1268 10.4362 22.1272 10.4389 22.1275 10.4416C22.1769 10.8517 22.2016 11.2668 22.2016 11.6933C22.2016 12.1198 22.177 12.5349 22.1275 12.945C22.1272 12.9477 22.1268 12.9504 22.1265 12.9532C22.1254 12.9639 22.1227 12.9749 22.1215 12.9856L20.0674 12.6235C20.101 12.32 20.1242 12.0087 20.1242 11.6933C20.1242 11.3779 20.101 11.0666 20.0674 10.7631L22.1215 10.401ZM3.76838 13.6419C3.80178 13.7777 3.84054 13.911 3.88098 14.0436C3.86445 14.1801 3.90275 14.3177 3.98749 14.426C4.01286 14.4965 4.02217 14.5745 4.04937 14.6441V14.6451C4.14305 14.8984 4.27621 15.1352 4.39628 15.3775L2.59577 16.4162C2.20593 15.66 1.91077 14.8518 1.71935 14.003L3.76838 13.6419ZM19.8624 13.6419L21.9095 14.003C21.718 14.8518 21.4229 15.66 21.033 16.4162L19.2345 15.3785C19.3553 15.1358 19.4881 14.8975 19.5845 14.6451C19.6131 14.5719 19.6211 14.491 19.6474 14.4169C19.7265 14.3118 19.7628 14.1805 19.7488 14.0497C19.7894 13.9148 19.8293 13.7795 19.8624 13.6419ZM7.06307 13.7819C7.36505 14.4654 7.8123 15.0694 8.36249 15.5611L7.13611 17.249C7.11559 17.2329 7.09389 17.2183 7.07119 17.2054C7.04781 17.1861 7.02784 17.1698 6.99409 17.1395C6.99342 17.1388 6.99274 17.1381 6.99207 17.1374C6.55516 16.7491 6.16166 16.307 5.82756 15.8228C5.82723 15.8221 5.82689 15.8215 5.82655 15.8208C5.72971 15.6818 5.64074 15.535 5.55267 15.3836C5.5368 15.3451 5.51637 15.3087 5.49181 15.275C5.49181 15.2747 5.49181 15.2744 5.49181 15.274C5.3357 15.0057 5.20666 14.7196 5.09011 14.425L7.06307 13.7819ZM16.5657 13.7819L18.5417 14.426C18.4214 14.7221 18.2918 15.0097 18.136 15.2771C18.1118 15.3104 18.0918 15.3465 18.0761 15.3846C17.9882 15.5358 17.8989 15.6821 17.8023 15.8208C17.8019 15.8215 17.8016 15.8221 17.8012 15.8228C17.4671 16.307 17.0736 16.7491 16.6367 17.1374C16.6361 17.1381 16.6354 17.1388 16.6347 17.1395C16.6026 17.1683 16.5843 17.1835 16.5617 17.2024C16.5612 17.2028 16.5602 17.2029 16.5596 17.2034C16.5362 17.2168 16.5138 17.2321 16.4927 17.249L15.2663 15.5611C15.8165 15.0694 16.2637 14.4654 16.5657 13.7819ZM9.20137 16.1738C9.82862 16.5413 10.5371 16.7847 11.295 16.8605V18.9024C10.8813 18.8726 10.4643 18.8507 10.0727 18.7554L10.0737 18.7564C9.83272 18.6973 9.60775 18.6287 9.38903 18.5484C9.35241 18.529 9.31358 18.514 9.27339 18.5038C8.98606 18.3964 8.70432 18.276 8.44161 18.1335C8.43992 18.1325 8.43823 18.1315 8.43653 18.1305C8.27764 18.0469 8.14577 17.928 7.99427 17.8343L9.20137 16.1738ZM14.4274 16.1738L15.6345 17.8343C15.483 17.928 15.3512 18.0469 15.1923 18.1305C15.1906 18.1315 15.1889 18.1325 15.1872 18.1335C14.9236 18.2765 14.6407 18.3972 14.3524 18.5048C14.3129 18.5148 14.2748 18.5295 14.2388 18.5484C14.0203 18.6286 13.7958 18.6973 13.5551 18.7564L13.5561 18.7554C13.1645 18.8507 12.7475 18.8726 12.3338 18.9024V16.8605C13.0917 16.7847 13.8002 16.5413 14.4274 16.1738ZM4.89434 16.2874C4.92235 16.3297 4.94521 16.3732 4.97448 16.4152C5.30005 16.8867 5.69379 17.2997 6.10449 17.6913L4.7645 19.2879C4.21099 18.7698 3.69385 18.2184 3.2612 17.5939C3.2612 17.5936 3.2612 17.5932 3.2612 17.5929C3.20216 17.508 3.15039 17.415 3.09383 17.3271L4.89434 16.2874ZM18.7345 16.2874L20.535 17.3271C20.4784 17.415 20.4266 17.508 20.3676 17.5929C20.3676 17.5932 20.3676 17.5936 20.3676 17.5939C19.935 18.2184 19.4178 18.7698 18.8643 19.2879L17.5243 17.6913C17.935 17.2997 18.3288 16.8867 18.6543 16.4152L18.6564 16.4132C18.6851 16.372 18.707 16.3289 18.7345 16.2874ZM6.87744 18.3861C6.95617 18.4586 7.05536 18.505 7.16147 18.519C7.42445 18.6972 7.67303 18.9018 7.95166 19.0485L7.95268 19.0495C8.1292 19.145 8.3145 19.2125 8.49638 19.292L7.78734 21.2426C7.51937 21.1299 7.24872 21.0273 6.98902 20.8896C6.98767 20.8889 6.98632 20.8882 6.98496 20.8876C6.48206 20.6267 6.02422 20.2853 5.57093 19.9422L6.87744 18.3861ZM16.7514 18.3871L18.0579 19.9422C17.6046 20.2853 17.1467 20.6267 16.6438 20.8876C16.6425 20.8882 16.6411 20.8889 16.6398 20.8896C16.3801 21.0273 16.1094 21.1299 15.8415 21.2426L15.1324 19.292C15.3143 19.2125 15.4996 19.145 15.6761 19.0495L15.6771 19.0485C15.9558 18.9018 16.2043 18.6972 16.4673 18.519C16.5733 18.5053 16.6725 18.4593 16.7514 18.3871ZM9.47018 19.6561C9.58902 19.6907 9.70614 19.7352 9.82623 19.7647C9.82657 19.7647 9.8269 19.7647 9.82724 19.7647C10.2974 19.8791 10.7969 19.9096 11.295 19.9412V22.0176C10.6256 21.9835 9.95708 21.9352 9.33324 21.7792C9.33223 21.7789 9.33121 21.7785 9.3302 21.7782C9.13121 21.7298 8.94929 21.6629 8.76012 21.6047L9.47018 19.6561ZM14.1586 19.6561L14.8687 21.6047C14.6795 21.6629 14.4976 21.7298 14.2986 21.7782C14.2976 21.7785 14.2966 21.7789 14.2956 21.7792C13.6717 21.9351 13.0032 21.9835 12.3338 22.0176V19.9412C12.8319 19.9096 13.3314 19.8791 13.8016 19.7647C13.8019 19.7647 13.8022 19.7647 13.8026 19.7647C13.9227 19.7352 14.0398 19.6907 14.1586 19.6561ZM7.89892 22.4243C7.90053 22.425 7.90233 22.4247 7.90399 22.4254C7.90757 22.4266 7.91052 22.4291 7.91413 22.4304L7.89892 22.4243ZM15.7299 22.4243L15.7147 22.4304C15.7183 22.4292 15.7212 22.4267 15.7248 22.4254C15.7264 22.4248 15.7283 22.4249 15.7299 22.4243Z" fill="#FEFAFA"/>
</svg>
